<svg width="21" height="25" viewBox="0 0 21 25" fill="none" xmlns="http://www.w3.org/2000/svg">
<path d="M18.0723 24.6621C16.6108 24.6621 2.82191 24.7776 1.91007 24.5499C-0.121944 24.0425 0.00217139 22.8751 0.00217139 22.8751L20.1982 22.8751C20.1982 22.8751 19.322 24.6621 18.0723 24.6621Z" fill="white"/>
<path d="M17.6201 0.732261L16.9336 1.48037e-06L11.1671 9.76245e-07L3.61565 3.16079e-07C3.61565 3.16079e-07 2.86613 0.381389 2.56303 0.732259C2.25993 1.08313 2.01384 1.78488 2.01384 1.78488L2.01384 6.38438L2.01384 12.7688L0.640851 14.2333L0.000124509 16.247L0.000124017 21.8762L20.3203 21.8762L20.3203 15.8351L19.405 14.0502L18.032 12.7688L18.032 1.60182L17.6201 0.732261Z" fill="white"/>
</svg>
